<svg xmlns="http://www.w3.org/2000/svg" width="232" height="98" viewBox="0 0 232 98" version="1.1"><path d="M 46 25 C 43.560 27.440, 43.438 31.239, 45.677 35.030 C 47.090 37.422, 47.143 38.123, 46.014 39.483 C 44.344 41.495, 41.062 41.088, 39.602 38.687 C 38.706 37.214, 38.942 36.512, 40.858 34.940 C 42.274 33.778, 42.980 32.390, 42.626 31.467 C 42.096 30.088, 41.734 30.086, 39.089 31.454 C 37.468 32.292, 35.883 33.793, 35.567 34.790 C 35.251 35.786, 33.469 37.152, 31.607 37.825 C 29.392 38.626, 27.787 40.099, 26.963 42.088 C 25.857 44.759, 25.949 45.453, 27.721 47.814 C 29.837 50.633, 29.958 50.649, 42.500 49.778 C 45.953 49.538, 46.542 49.798, 46.811 51.682 C 47.222 54.570, 43.823 56.511, 41 55 C 39.900 54.411, 39 53.495, 39 52.965 C 39 51.609, 36.267 51.760, 35.399 53.164 C 34.578 54.493, 39.333 59, 41.556 59 C 42.350 59, 43 59.830, 43 60.845 C 43 65.288, 50.018 68.076, 54.878 65.563 C 58.699 63.587, 59.672 60.201, 57.581 56.157 C 55.501 52.135, 55.586 50.292, 57.907 49.050 C 59.377 48.263, 60.352 48.485, 62.157 50.015 L 64.500 52 62.250 53.910 C 59.921 55.888, 59.197 59, 61.066 59 C 63.252 59, 66.125 56.800, 67.023 54.439 C 67.585 52.962, 68.749 52, 69.975 52 C 75.652 52, 78.004 43.722, 73.365 40.073 C 70.250 37.622, 67.550 37.465, 63.636 39.506 C 59.864 41.473, 57.321 41.395, 56.134 39.276 C 53.729 34.978, 60.306 31.892, 63.128 35.994 C 64.131 37.451, 64.904 37.728, 66 37.023 C 67.950 35.767, 66.373 33.019, 62.658 31.195 C 61.196 30.478, 60 29.445, 60 28.900 C 60 28.355, 58.895 26.805, 57.545 25.455 C 54.436 22.345, 48.874 22.126, 46 25 M 49.200 27.200 C 47.589 28.811, 47.689 30.596, 49.551 33.438 L 51.103 35.806 53.551 33.358 C 56.502 30.408, 56.663 28.425, 54.066 27.035 C 51.571 25.700, 50.669 25.731, 49.200 27.200 M 125 34.276 C 125 37.488, 124.922 37.545, 121.054 37.177 C 113.524 36.458, 109.344 44.354, 114.073 50.365 C 115.928 52.723, 116.820 53, 122.573 53 L 129 53 129 42 C 129 31.667, 128.879 31, 127 31 C 125.407 31, 125 31.667, 125 34.276 M 186.960 31.500 C 186.938 31.775, 186.899 36.612, 186.874 42.250 C 186.831 51.889, 186.952 52.519, 188.914 52.820 C 190.922 53.127, 191 52.727, 191 42.070 C 191 31.667, 190.880 31, 189 31 C 187.900 31, 186.982 31.225, 186.960 31.500 M 88.185 36.865 C 87.462 37.323, 85.775 37.488, 84.435 37.232 C 82.017 36.770, 82 36.822, 82 44.883 C 82 52.333, 82.164 53, 84 53 C 85.748 53, 86 52.333, 86 47.700 C 86 42.118, 87.175 40, 90.273 40 C 91.485 40, 92.032 39.411, 91.823 38.333 C 91.434 36.324, 89.972 35.734, 88.185 36.865 M 98 37.294 C 92.810 39.919, 91.818 46.818, 96.025 51.025 C 99.907 54.907, 110 52.845, 110 48.171 C 110 46.460, 106.315 46.738, 105.638 48.500 C 104.594 51.222, 98 49.754, 98 46.800 C 98 46.360, 100.925 46, 104.500 46 C 110.414 46, 111 45.813, 111 43.923 C 111 41.116, 105.709 35.996, 102.827 36.015 C 101.547 36.023, 99.375 36.599, 98 37.294 M 136.500 37.155 C 131.390 39.950, 130.260 47.017, 134.314 50.826 C 137.511 53.829, 144.157 53.821, 146.961 50.811 C 148.082 49.608, 149 48.258, 149 47.811 C 149 46.413, 145.739 46.926, 143.869 48.619 C 141.793 50.497, 137.538 49.843, 136.642 47.509 C 136.162 46.260, 137.176 46, 142.531 46 C 149.507 46, 150.069 45.440, 147.890 40.657 C 146.042 36.603, 140.580 34.923, 136.500 37.155 M 154.165 37.597 C 152.584 38.704, 151.980 39.993, 152.193 41.803 C 152.446 43.952, 153.339 44.672, 157.250 45.882 C 159.863 46.690, 162 47.947, 162 48.676 C 162 50.509, 158.439 50.334, 155.413 48.351 C 151.954 46.084, 149.797 48.013, 152.479 50.976 C 154.940 53.697, 162.950 53.818, 165.345 51.171 C 168.732 47.429, 166.310 43.991, 159.250 42.519 C 157.463 42.146, 156 41.427, 156 40.921 C 156 39.676, 160.724 39.744, 161.500 41 C 162.215 42.157, 166.008 42.368, 165.985 41.250 C 165.938 38.984, 161.563 36, 158.288 36 C 157.274 36, 155.419 36.719, 154.165 37.597 M 169 43.878 C 169 48.374, 169.460 51.137, 170.328 51.857 C 171.058 52.463, 174.433 52.920, 177.828 52.872 L 184 52.785 184 44.893 C 184 37.367, 183.895 37, 181.743 37 C 179.689 37, 179.517 37.397, 179.835 41.393 C 180.274 46.910, 178.635 50.231, 175.682 49.811 C 173.743 49.535, 173.467 48.803, 173.202 43.250 C 172.944 37.819, 172.649 37, 170.952 37 C 169.205 37, 169 37.723, 169 43.878 M 50.341 40.553 C 50.023 41.382, 48.771 42.609, 47.559 43.280 L 45.355 44.500 48.427 47.010 L 51.500 49.520 54 47.010 L 56.500 44.500 53.710 41.773 C 51.465 39.580, 50.806 39.341, 50.341 40.553 M 98.714 40.619 C 97.113 42.220, 98.217 43, 102.083 43 C 104.902 43, 106.040 42.613, 105.756 41.750 C 105.302 40.367, 99.843 39.491, 98.714 40.619 M 118.050 41.440 C 116.416 43.409, 117.117 48.058, 119.250 49.394 C 121.715 50.937, 124.414 49.031, 124.836 45.448 C 125.352 41.069, 120.659 38.296, 118.050 41.440 M 137.713 40.621 C 136.163 42.170, 137.165 43, 140.583 43 C 143.002 43, 144.033 42.594, 143.756 41.750 C 143.297 40.352, 138.818 39.515, 137.713 40.621 M 31.105 42.373 C 29.651 44.125, 30.641 46.751, 33.042 47.513 C 34.064 47.838, 36.327 47.365, 38.070 46.464 L 41.240 44.824 38.096 42.912 C 34.369 40.645, 32.649 40.513, 31.105 42.373 M 63.845 43.244 L 61.191 44.319 64.805 46.772 C 68.932 49.572, 71.500 48.851, 71.500 44.891 C 71.500 42.128, 68.302 41.440, 63.845 43.244 M 49.570 43.887 C 48.889 44.988, 51.438 47.229, 52.342 46.325 C 52.704 45.963, 53 45.067, 53 44.333 C 53 42.844, 50.422 42.508, 49.570 43.887 M 49.047 56.450 C 46.034 59.657, 46.672 62.500, 50.405 62.500 C 54.564 62.500, 55.855 59.902, 53.305 56.661 L 51.274 54.079 49.047 56.450 M 182 56 C 182 56.550, 182.450 57, 183 57 C 183.550 57, 184 56.550, 184 56 C 184 55.450, 183.550 55, 183 55 C 182.450 55, 182 55.450, 182 56 M 142.813 59.683 C 143.534 59.972, 144.397 59.936, 144.729 59.604 C 145.061 59.272, 144.471 59.036, 143.417 59.079 C 142.252 59.127, 142.015 59.364, 142.813 59.683" stroke="none" fill="#eee6e6" fill-rule="evenodd"/><path d="M 0 49.004 L 0 98.008 116.250 97.754 L 232.500 97.500 232.760 48.750 L 233.019 0 116.510 0 L 0 0 0 49.004 M 0.463 49.500 C 0.463 76.450, 0.592 87.331, 0.749 73.681 C 0.907 60.030, 0.906 37.980, 0.749 24.681 C 0.592 11.381, 0.463 22.550, 0.463 49.500 M 46 25 C 43.560 27.440, 43.438 31.239, 45.677 35.030 C 47.090 37.422, 47.143 38.123, 46.014 39.483 C 44.344 41.495, 41.062 41.088, 39.602 38.687 C 38.706 37.214, 38.942 36.512, 40.858 34.940 C 42.274 33.778, 42.980 32.390, 42.626 31.467 C 42.096 30.088, 41.734 30.086, 39.089 31.454 C 37.468 32.292, 35.883 33.793, 35.567 34.790 C 35.251 35.786, 33.469 37.152, 31.607 37.825 C 29.392 38.626, 27.787 40.099, 26.963 42.088 C 25.857 44.759, 25.949 45.453, 27.721 47.814 C 29.837 50.633, 29.958 50.649, 42.500 49.778 C 45.953 49.538, 46.542 49.798, 46.811 51.682 C 47.222 54.570, 43.823 56.511, 41 55 C 39.900 54.411, 39 53.495, 39 52.965 C 39 51.609, 36.267 51.760, 35.399 53.164 C 34.578 54.493, 39.333 59, 41.556 59 C 42.350 59, 43 59.830, 43 60.845 C 43 65.288, 50.018 68.076, 54.878 65.563 C 58.699 63.587, 59.672 60.201, 57.581 56.157 C 55.501 52.135, 55.586 50.292, 57.907 49.050 C 59.377 48.263, 60.352 48.485, 62.157 50.015 L 64.500 52 62.250 53.910 C 59.921 55.888, 59.197 59, 61.066 59 C 63.252 59, 66.125 56.800, 67.023 54.439 C 67.585 52.962, 68.749 52, 69.975 52 C 75.652 52, 78.004 43.722, 73.365 40.073 C 70.250 37.622, 67.550 37.465, 63.636 39.506 C 59.864 41.473, 57.321 41.395, 56.134 39.276 C 53.729 34.978, 60.306 31.892, 63.128 35.994 C 64.131 37.451, 64.904 37.728, 66 37.023 C 67.950 35.767, 66.373 33.019, 62.658 31.195 C 61.196 30.478, 60 29.445, 60 28.900 C 60 28.355, 58.895 26.805, 57.545 25.455 C 54.436 22.345, 48.874 22.126, 46 25 M 49.200 27.200 C 47.589 28.811, 47.689 30.596, 49.551 33.438 L 51.103 35.806 53.551 33.358 C 56.502 30.408, 56.663 28.425, 54.066 27.035 C 51.571 25.700, 50.669 25.731, 49.200 27.200 M 125 34.276 C 125 37.488, 124.922 37.545, 121.054 37.177 C 113.524 36.458, 109.344 44.354, 114.073 50.365 C 115.928 52.723, 116.820 53, 122.573 53 L 129 53 129 42 C 129 31.667, 128.879 31, 127 31 C 125.407 31, 125 31.667, 125 34.276 M 186.960 31.500 C 186.938 31.775, 186.899 36.612, 186.874 42.250 C 186.831 51.889, 186.952 52.519, 188.914 52.820 C 190.922 53.127, 191 52.727, 191 42.070 C 191 31.667, 190.880 31, 189 31 C 187.900 31, 186.982 31.225, 186.960 31.500 M 88.185 36.865 C 87.462 37.323, 85.775 37.488, 84.435 37.232 C 82.017 36.770, 82 36.822, 82 44.883 C 82 52.333, 82.164 53, 84 53 C 85.748 53, 86 52.333, 86 47.700 C 86 42.118, 87.175 40, 90.273 40 C 91.485 40, 92.032 39.411, 91.823 38.333 C 91.434 36.324, 89.972 35.734, 88.185 36.865 M 98 37.294 C 92.810 39.919, 91.818 46.818, 96.025 51.025 C 99.907 54.907, 110 52.845, 110 48.171 C 110 46.460, 106.315 46.738, 105.638 48.500 C 104.594 51.222, 98 49.754, 98 46.800 C 98 46.360, 100.925 46, 104.500 46 C 110.414 46, 111 45.813, 111 43.923 C 111 41.116, 105.709 35.996, 102.827 36.015 C 101.547 36.023, 99.375 36.599, 98 37.294 M 136.500 37.155 C 131.390 39.950, 130.260 47.017, 134.314 50.826 C 137.511 53.829, 144.157 53.821, 146.961 50.811 C 148.082 49.608, 149 48.258, 149 47.811 C 149 46.413, 145.739 46.926, 143.869 48.619 C 141.793 50.497, 137.538 49.843, 136.642 47.509 C 136.162 46.260, 137.176 46, 142.531 46 C 149.507 46, 150.069 45.440, 147.890 40.657 C 146.042 36.603, 140.580 34.923, 136.500 37.155 M 154.165 37.597 C 152.584 38.704, 151.980 39.993, 152.193 41.803 C 152.446 43.952, 153.339 44.672, 157.250 45.882 C 159.863 46.690, 162 47.947, 162 48.676 C 162 50.509, 158.439 50.334, 155.413 48.351 C 151.954 46.084, 149.797 48.013, 152.479 50.976 C 154.940 53.697, 162.950 53.818, 165.345 51.171 C 168.732 47.429, 166.310 43.991, 159.250 42.519 C 157.463 42.146, 156 41.427, 156 40.921 C 156 39.676, 160.724 39.744, 161.500 41 C 162.215 42.157, 166.008 42.368, 165.985 41.250 C 165.938 38.984, 161.563 36, 158.288 36 C 157.274 36, 155.419 36.719, 154.165 37.597 M 169 43.878 C 169 48.374, 169.460 51.137, 170.328 51.857 C 171.058 52.463, 174.433 52.920, 177.828 52.872 L 184 52.785 184 44.893 C 184 37.367, 183.895 37, 181.743 37 C 179.689 37, 179.517 37.397, 179.835 41.393 C 180.274 46.910, 178.635 50.231, 175.682 49.811 C 173.743 49.535, 173.467 48.803, 173.202 43.250 C 172.944 37.819, 172.649 37, 170.952 37 C 169.205 37, 169 37.723, 169 43.878 M 50.341 40.553 C 50.023 41.382, 48.771 42.609, 47.559 43.280 L 45.355 44.500 48.427 47.010 L 51.500 49.520 54 47.010 L 56.500 44.500 53.710 41.773 C 51.465 39.580, 50.806 39.341, 50.341 40.553 M 98.714 40.619 C 97.113 42.220, 98.217 43, 102.083 43 C 104.902 43, 106.040 42.613, 105.756 41.750 C 105.302 40.367, 99.843 39.491, 98.714 40.619 M 118.050 41.440 C 116.416 43.409, 117.117 48.058, 119.250 49.394 C 121.715 50.937, 124.414 49.031, 124.836 45.448 C 125.352 41.069, 120.659 38.296, 118.050 41.440 M 137.713 40.621 C 136.163 42.170, 137.165 43, 140.583 43 C 143.002 43, 144.033 42.594, 143.756 41.750 C 143.297 40.352, 138.818 39.515, 137.713 40.621 M 31.105 42.373 C 29.651 44.125, 30.641 46.751, 33.042 47.513 C 34.064 47.838, 36.327 47.365, 38.070 46.464 L 41.240 44.824 38.096 42.912 C 34.369 40.645, 32.649 40.513, 31.105 42.373 M 63.845 43.244 L 61.191 44.319 64.805 46.772 C 68.932 49.572, 71.500 48.851, 71.500 44.891 C 71.500 42.128, 68.302 41.440, 63.845 43.244 M 49.570 43.887 C 48.889 44.988, 51.438 47.229, 52.342 46.325 C 52.704 45.963, 53 45.067, 53 44.333 C 53 42.844, 50.422 42.508, 49.570 43.887 M 49.047 56.450 C 46.034 59.657, 46.672 62.500, 50.405 62.500 C 54.564 62.500, 55.855 59.902, 53.305 56.661 L 51.274 54.079 49.047 56.450 M 182 56 C 182 56.550, 182.450 57, 183 57 C 183.550 57, 184 56.550, 184 56 C 184 55.450, 183.550 55, 183 55 C 182.450 55, 182 55.450, 182 56 M 142.813 59.683 C 143.534 59.972, 144.397 59.936, 144.729 59.604 C 145.061 59.272, 144.471 59.036, 143.417 59.079 C 142.252 59.127, 142.015 59.364, 142.813 59.683" stroke="none" fill="#5d0606" fill-rule="evenodd"/></svg>